<?xml version="1.0" encoding="utf-8"?>
<!-- Generator: Adobe Illustrator 24.2.3, SVG Export Plug-In . SVG Version: 6.00 Build 0)  -->
<svg version="1.1" xmlns="http://www.w3.org/2000/svg" xmlns:xlink="http://www.w3.org/1999/xlink" x="0px" y="0px"
	 viewBox="0 0 808 808" style="enable-background:new 0 0 808 808;" xml:space="preserve">
<style type="text/css">
	.st0{fill:none;}
	.st1{fill:#FFFFFF;}
</style>
<g id="Layer_1">
	<rect x="0" y="0" transform="matrix(-1 1.209803e-15 -1.209803e-15 -1 808 808)" class="st0" width="808" height="808"/>
</g>
<g id="Layer_2">
	<path class="st1" d="M0,0v808h808V0H0z M613.6,16v123.2C603.46,115.74,589.06,92,570.4,68c-22.4-25.6-43.74-42.92-64-52H613.6z
		 M613.6,240.8v168.8c-36.8-25.6-74.67-40.26-113.6-44C557.6,343.2,595.46,301.6,613.6,240.8z M281.6,38.4l38.4-0.8h14.4
		c60.26,0,106.12,9.88,137.6,29.6c42.12,25.6,63.2,70.14,63.2,133.6c0,52.28-22.94,94.14-68.8,125.6c-40,27.2-87.74,40.8-143.2,40.8
		c-13.34,0-27.2-0.8-41.6-2.4V38.4z M167.2,773.6c-12.8,12.27-27.74,18.4-44.8,18.4c-17.6,0-32.67-6-45.2-18
		c-12.54-12-18.8-26.8-18.8-44.4c0-8.53,1.73-16.66,5.2-24.4c3.46-7.72,8.12-14.4,14-20c5.86-5.6,12.66-10.12,20.4-13.6
		c7.73-3.46,15.86-5.2,24.4-5.2c8.52,0,16.66,1.74,24.4,5.2c7.73,3.47,14.53,8,20.4,13.6c5.86,5.6,10.52,12.28,14,20
		c3.46,7.74,5.2,15.88,5.2,24.4C186.4,746.67,180,761.34,167.2,773.6z M187.2,690.4c-17.6-24-39.2-36-64.8-36c-9.6,0-18.94,2-28,6
		c-9.07,4-17.07,9.47-24,16.4c-6.94,6.94-12.54,14.94-16.8,24c-4.27,9.08-6.4,18.4-6.4,28c0,30.4,12,51.48,36,63.2H16V16h68.8
		C62.4,32,51.2,53.08,51.2,79.2c0,10.14,2,19.74,6,28.8c4,9.08,9.32,17.08,16,24c6.66,6.94,14.52,12.4,23.6,16.4
		c9.06,4,18.66,6,28.8,6c25.06,0,45.6-10.66,61.6-32V690.4z M170,123.2c-12.54,12.27-27.34,18.4-44.4,18.4
		c-17.08,0-31.74-6.12-44-18.4c-12.27-12.26-18.4-26.93-18.4-44c0-17.06,6.12-31.86,18.4-44.4c12.26-12.52,26.92-18.8,44-18.8
		c17.06,0,31.86,6.27,44.4,18.8c12.52,12.54,18.8,27.34,18.8,44.4C188.8,96.27,182.52,110.94,170,123.2z M314.4,740
		c-18.14-18.12-27.2-39.72-27.2-64.8c0-24.53,8.52-46.12,25.6-64.8c16.53-18.12,37.6-27.2,63.2-27.2c25.06,0,46.92,8.8,65.6,26.4
		c19.2,17.6,28.8,38.94,28.8,64c0,25.6-9.07,47.47-27.2,65.6c-18.14,18.14-39.48,27.2-64,27.2C354.12,766.4,332.52,757.6,314.4,740z
		 M468.8,730c10.66-18.4,16-37.2,16-56.4c0-29.86-10.67-54.66-32-74.4C432,578.4,406.92,568,377.6,568c-42.68,0-74.68,18.67-96,56
		V402.4c15.46-0.52,28.8-0.92,40-1.2c11.2-0.26,20.52-0.4,28-0.4c78.92,0,139.2,12,180.8,36c52.8,31.48,79.2,83.48,79.2,156
		c0,51.74-17.88,93.6-53.6,125.6c-33.08,29.88-76,47.47-128.8,52.8C444.26,762.14,458.12,748.4,468.8,730z M696.8,792H532
		c36.8-8.52,70.92-27.72,102.4-57.6c30.92-29.33,51.72-62.92,62.4-100.8V792z M696.8,520.8c-21.34-53.32-43.74-87.2-67.2-101.6V16
		h67.2V520.8z M792,792h-79.2V16H792V792z"/>
</g>
</svg>
